<?xml version="1.0" encoding="UTF-8"?>
<svg version="1.1" xmlns="http://www.w3.org/2000/svg" width="1920" height="1080">
<path d="M0 0 C633.6 0 1267.2 0 1920 0 C1920 356.4 1920 712.8 1920 1080 C1286.4 1080 652.8 1080 0 1080 C0 723.6 0 367.2 0 0 Z " fill="#D7212E" transform="translate(0,0)"/>
<path d="M0 0 C1.20783646 -0.00350464 2.41567291 -0.00700928 3.66011047 -0.01062012 C6.93640416 -0.01785715 10.21253325 -0.01624389 13.48882413 -0.00986195 C16.92850133 -0.00476032 20.36816839 -0.00950391 23.80784607 -0.01263428 C29.57146144 -0.01625747 35.33502528 -0.01151368 41.09863281 -0.00195312 C47.76364499 0.00897488 54.42853521 0.00536793 61.09354454 -0.00560594 C66.82879258 -0.01467052 72.56400386 -0.01596957 78.29925674 -0.0107286 C81.71972815 -0.00761028 85.14014209 -0.00719668 88.56060982 -0.01380157 C92.3621066 -0.01885434 96.16336484 -0.01117624 99.96484375 0 C101.09986328 -0.00404846 102.23488281 -0.00809692 103.40429688 -0.01226807 C104.43450455 -0.00662842 105.46471222 -0.00098877 106.52613831 0.00482178 C107.87357038 0.00595285 107.87357038 0.00595285 109.2482233 0.00710678 C111.40014648 0.25878906 111.40014648 0.25878906 113.40014648 2.25878906 C113.59729362 4.87265328 113.66785034 7.3805605 113.65182877 9.99563599 C113.65473565 10.80776385 113.65764253 11.61989172 113.6606375 12.45662951 C113.66799887 15.20732505 113.66096579 17.95780178 113.65411377 20.70849609 C113.65641578 22.68870216 113.65959055 24.66890738 113.66356826 26.64911079 C113.67196059 32.1135093 113.66777096 37.57783844 113.66159582 43.04223728 C113.65709038 48.9264175 113.66404556 54.81058538 113.66955566 60.69476318 C113.67795581 71.56330299 113.67719853 82.43181881 113.67173273 93.3003599 C113.66670856 103.33958559 113.66538497 113.3788031 113.66777802 123.41802979 C113.66793079 124.08304851 113.66808356 124.74806724 113.66824096 125.43323804 C113.6688636 128.13252765 113.66950039 130.83181724 113.67016048 133.53110684 C113.67628331 158.87065648 113.67072391 184.21019194 113.65996669 209.54973939 C113.65047495 232.07971667 113.65132418 254.60967135 113.66088867 277.13964844 C113.6715898 302.43181391 113.67584915 327.72396684 113.66966414 353.01613426 C113.66902268 355.71060562 113.668397 358.40507698 113.66777802 361.09954834 C113.66761986 361.76303272 113.66746171 362.42651711 113.66729876 363.11010708 C113.66502045 373.14488032 113.66769062 383.17964452 113.67273712 393.2144165 C113.67833317 404.62039207 113.67685649 416.0263401 113.66617563 427.43231249 C113.66090167 433.25725604 113.65889136 439.0821536 113.66547394 444.90709686 C113.67140002 450.23143756 113.66821402 455.55568928 113.65751883 460.88002181 C113.65527052 462.81403507 113.65645277 464.74805573 113.66127041 466.68206429 C113.66728489 469.29546631 113.66118296 471.90855686 113.65182877 474.52194214 C113.6565111 475.28620223 113.66119343 476.05046232 113.66601765 476.8378818 C113.62844723 482.03048832 113.62844723 482.03048832 111.40014648 484.25878906 C109.26777649 484.51605797 109.26777649 484.51605797 106.57324219 484.5262146 C105.55315063 484.53474457 104.53305908 484.54327454 103.48205566 484.55206299 C102.35803345 484.55115662 101.23401123 484.55025024 100.07592773 484.54931641 C98.8951062 484.55603363 97.71428467 484.56275085 96.49768066 484.56967163 C93.24872046 484.58545912 89.99991338 484.59203006 86.75091934 484.5933032 C84.71417399 484.5947255 82.67745529 484.59899719 80.64071655 484.60429764 C73.51363434 484.62283554 66.386627 484.63096601 59.25952148 484.62939453 C52.65569886 484.6282011 46.05220733 484.64913496 39.44846821 484.68088186 C33.75645853 484.7072523 28.06455527 484.71775282 22.37248516 484.71648371 C18.98368926 484.7159789 15.59518559 484.72138627 12.20645142 484.74283981 C-2.60075511 484.82017904 -16.33293175 484.42903828 -30.59985352 480.25878906 C-31.70868896 479.94775238 -32.81752441 479.6367157 -33.95996094 479.31625366 C-63.32074383 470.74167359 -89.27248794 448.8613445 -104.28735352 422.50878906 C-105.77895001 419.7847638 -107.20704331 417.03452203 -108.59985352 414.25878906 C-108.92614746 413.60990723 -109.25244141 412.96102539 -109.58862305 412.29248047 C-119.69121926 391.59536254 -121.35302981 369.0553633 -121.21508789 346.37744141 C-121.21860071 343.8987846 -121.22427226 341.42013009 -121.23190308 338.94148254 C-121.24453884 332.97668208 -121.23439026 327.01219608 -121.21278983 321.04744647 C-121.18846424 314.06717323 -121.19051324 307.08697417 -121.19309574 300.10666795 C-121.19676511 287.63386666 -121.17614078 275.16122604 -121.1418457 262.68847656 C-121.10875369 250.64839623 -121.09459238 238.60848428 -121.10083008 226.56835938 C-121.10871763 211.26892156 -121.09918893 195.96958757 -121.07598755 180.67016571 C-121.06915736 175.83057419 -121.06841158 170.99100448 -121.06987 166.15140915 C-121.07147881 159.61263732 -121.05629844 153.07402147 -121.03064346 146.5352993 C-121.02356407 144.15513884 -121.02135754 141.7749573 -121.0247612 139.39478874 C-121.03820191 127.76717051 -120.73138591 116.3278043 -119.2611084 104.78237915 C-119.14502086 103.86757636 -119.02893332 102.95277358 -118.90932798 102.0102495 C-114.51201325 71.00261543 -94.97941408 42.76910121 -70.44360352 24.02050781 C-64.79532286 19.86290447 -58.80593792 16.51431491 -52.59985352 13.25878906 C-51.79805664 12.80117187 -50.99625977 12.34355469 -50.17016602 11.87207031 C-44.73880193 8.89327721 -39.04057132 6.9595098 -33.16235352 5.07128906 C-32.38738525 4.8210498 -31.61241699 4.57081055 -30.81396484 4.31298828 C-20.553137 1.13980179 -10.72336465 -0.03887274 0 0 Z " fill="#D7222E" transform="translate(840.599853515625,155.7412109375)"/>
<path d="M0 0 C0.78582458 0.00247742 1.57164917 0.00495483 2.38128662 0.00750732 C3.62341667 -0.00015907 3.62341667 -0.00015907 4.89064026 -0.00798035 C7.64548881 -0.02194336 10.40008836 -0.02091161 13.15496826 -0.01861572 C15.07957552 -0.02250499 17.00418193 -0.02684014 18.92878723 -0.03160095 C22.9800391 -0.03908184 27.03120393 -0.03876277 31.0824585 -0.0335083 C36.22159068 -0.02777502 41.3603552 -0.04448462 46.49942684 -0.06785297 C50.4865775 -0.08276138 54.47364373 -0.08343801 58.46081734 -0.08034325 C60.35143309 -0.08085006 62.24205439 -0.08596462 64.13264275 -0.09615517 C96.8488529 -0.25056446 128.70340222 8.26274256 153.11590576 31.18060303 C154.961764 32.89575282 156.8271109 34.43025356 158.81512451 35.96966553 C174.41958286 49.29233987 184.76396092 70.15400413 190.62762451 89.34466553 C190.87399658 90.1471875 191.12036865 90.94970947 191.37420654 91.77655029 C194.33783464 101.90961872 195.67672996 111.9270017 195.66523743 122.46987915 C195.67188524 123.52885599 195.67853305 124.58783283 195.68538231 125.67889988 C195.70491025 129.19235238 195.7104319 132.70567672 195.71575928 136.21917725 C195.72666713 138.75352301 195.73834019 141.28786558 195.75071716 143.82220459 C195.7842914 151.40213286 195.80103772 158.98203249 195.81484047 166.56201857 C195.82183277 170.14942327 195.83098346 173.73682235 195.83994865 177.32422256 C195.86913941 189.28115649 195.89392405 201.23808503 195.90457249 213.19505119 C195.90526318 213.95859703 195.90595388 214.72214286 195.9066655 215.50882644 C195.90735751 216.27402183 195.90804953 217.03921723 195.90876251 217.82760036 C195.91017442 219.37772235 195.91159523 220.92784433 195.9130249 222.47796631 C195.91373007 223.24685205 195.91443524 224.01573779 195.91516178 224.80792309 C195.92737046 237.22216874 195.97008164 249.63610637 196.0259651 262.05022465 C196.08312398 274.85379853 196.11324977 287.65721792 196.11758465 300.46092045 C196.12063876 307.62603734 196.13482657 314.79072282 196.17886543 321.95571518 C196.59412311 392.20141417 196.59412311 392.20141417 181.37762451 418.28216553 C180.72664795 419.42298584 180.07567139 420.56380615 179.40496826 421.73919678 C175.5149544 428.2975053 171.311869 434.46962552 166.37762451 440.28216553 C165.58871826 441.21673584 164.79981201 442.15130615 163.98699951 443.11419678 C153.59529968 455.09610628 141.40535454 463.9976442 127.37762451 471.28216553 C126.21875732 471.89962646 125.05989014 472.5170874 123.86590576 473.15325928 C108.83973606 480.85048836 92.06854528 484.43684883 75.23944092 484.4274292 C74.36366394 484.43078781 73.48788696 484.43414642 72.58557129 484.43760681 C69.71676178 484.44703779 66.84801101 484.44905517 63.97918701 484.45013428 C61.97758968 484.4533496 59.97599259 484.45671388 57.97439575 484.46022034 C53.79353286 484.46618992 49.61269058 484.4680622 45.43182373 484.46746826 C40.06483466 484.46736613 34.69797639 484.48107988 29.33101845 484.49824047 C25.20475653 484.50932824 21.07852673 484.51138856 16.95225143 484.51085854 C14.97222818 484.51204116 12.99220417 484.51647864 11.01219559 484.5241909 C8.25451514 484.53393652 5.49712557 484.53113568 2.73944092 484.52508545 C1.91763336 484.53070496 1.09582581 484.53632446 0.24911499 484.54211426 C-5.39405188 484.51048914 -5.39405188 484.51048914 -7.62237549 482.28216553 C-7.81952262 479.66830131 -7.89007935 477.16039409 -7.87405777 474.5453186 C-7.87841809 473.32712681 -7.87841809 473.32712681 -7.8828665 472.08432508 C-7.89022787 469.33362954 -7.88319479 466.58315281 -7.87634277 463.8324585 C-7.87864478 461.85225243 -7.88181955 459.87204721 -7.88579726 457.8918438 C-7.8941896 452.42744529 -7.88999997 446.96311615 -7.88382483 441.49871731 C-7.87931939 435.61453709 -7.88627457 429.73036921 -7.89178467 423.84619141 C-7.90018481 412.9776516 -7.89942754 402.10913578 -7.89396173 391.24059469 C-7.88893756 381.201369 -7.88761397 371.16215148 -7.89000702 361.1229248 C-7.89015979 360.45790608 -7.89031256 359.79288735 -7.89046996 359.10771655 C-7.8910926 356.40842694 -7.8917294 353.70913735 -7.89238949 351.00984775 C-7.89851232 325.67029811 -7.89295291 300.33076265 -7.88219569 274.9912152 C-7.87270395 252.46123792 -7.87355318 229.93128324 -7.88311768 207.40130615 C-7.8938188 182.10914068 -7.89807815 156.81698775 -7.89189315 131.52482033 C-7.89125168 128.83034897 -7.890626 126.13587761 -7.89000702 123.44140625 C-7.88984886 122.77792187 -7.88969071 122.11443748 -7.88952776 121.43084751 C-7.88724945 111.39607427 -7.88991962 101.36131007 -7.89496613 91.32653809 C-7.90056218 79.92056252 -7.8990855 68.51461449 -7.88840464 57.1086421 C-7.88313067 51.28369855 -7.88112036 45.45880099 -7.88770294 39.63385773 C-7.89362903 34.30951703 -7.89044303 28.98526531 -7.87974784 23.66093278 C-7.87749953 21.72691952 -7.87868177 19.79289886 -7.88349941 17.8588903 C-7.88951389 15.24548828 -7.88341196 12.63239773 -7.87405777 10.01901245 C-7.8787401 9.25475236 -7.88342243 8.49049227 -7.88824666 7.70307279 C-7.84080128 1.14564867 -6.5135074 0.06447475 0 0 Z " fill="#FEFDFE" transform="translate(1009.6223754882813,155.71783447265625)"/>
<path d="M0 0 C1.20783646 -0.00350464 2.41567291 -0.00700928 3.66011047 -0.01062012 C6.93640416 -0.01785715 10.21253325 -0.01624389 13.48882413 -0.00986195 C16.92850133 -0.00476032 20.36816839 -0.00950391 23.80784607 -0.01263428 C29.57146144 -0.01625747 35.33502528 -0.01151368 41.09863281 -0.00195312 C47.76364499 0.00897488 54.42853521 0.00536793 61.09354454 -0.00560594 C66.82879258 -0.01467052 72.56400386 -0.01596957 78.29925674 -0.0107286 C81.71972815 -0.00761028 85.14014209 -0.00719668 88.56060982 -0.01380157 C92.3621066 -0.01885434 96.16336484 -0.01117624 99.96484375 0 C101.09986328 -0.00404846 102.23488281 -0.00809692 103.40429688 -0.01226807 C104.43450455 -0.00662842 105.46471222 -0.00098877 106.52613831 0.00482178 C107.87357038 0.00595285 107.87357038 0.00595285 109.2482233 0.00710678 C111.40014648 0.25878906 111.40014648 0.25878906 113.40014648 2.25878906 C113.59729362 4.87265328 113.66785034 7.3805605 113.65182877 9.99563599 C113.65473565 10.80776385 113.65764253 11.61989172 113.6606375 12.45662951 C113.66799887 15.20732505 113.66096579 17.95780178 113.65411377 20.70849609 C113.65641578 22.68870216 113.65959055 24.66890738 113.66356826 26.64911079 C113.67196059 32.1135093 113.66777096 37.57783844 113.66159582 43.04223728 C113.65709038 48.9264175 113.66404556 54.81058538 113.66955566 60.69476318 C113.67795581 71.56330299 113.67719853 82.43181881 113.67173273 93.3003599 C113.66670856 103.33958559 113.66538497 113.3788031 113.66777802 123.41802979 C113.66793079 124.08304851 113.66808356 124.74806724 113.66824096 125.43323804 C113.6688636 128.13252765 113.66950039 130.83181724 113.67016048 133.53110684 C113.67628331 158.87065648 113.67072391 184.21019194 113.65996669 209.54973939 C113.65047495 232.07971667 113.65132418 254.60967135 113.66088867 277.13964844 C113.6715898 302.43181391 113.67584915 327.72396684 113.66966414 353.01613426 C113.66902268 355.71060562 113.668397 358.40507698 113.66777802 361.09954834 C113.66761986 361.76303272 113.66746171 362.42651711 113.66729876 363.11010708 C113.66502045 373.14488032 113.66769062 383.17964452 113.67273712 393.2144165 C113.67833317 404.62039207 113.67685649 416.0263401 113.66617563 427.43231249 C113.66090167 433.25725604 113.65889136 439.0821536 113.66547394 444.90709686 C113.67140002 450.23143756 113.66821402 455.55568928 113.65751883 460.88002181 C113.65527052 462.81403507 113.65645277 464.74805573 113.66127041 466.68206429 C113.66728489 469.29546631 113.66118296 471.90855686 113.65182877 474.52194214 C113.6565111 475.28620223 113.66119343 476.05046232 113.66601765 476.8378818 C113.62844723 482.03048832 113.62844723 482.03048832 111.40014648 484.25878906 C109.26777649 484.51605797 109.26777649 484.51605797 106.57324219 484.5262146 C105.55315063 484.53474457 104.53305908 484.54327454 103.48205566 484.55206299 C102.35803345 484.55115662 101.23401123 484.55025024 100.07592773 484.54931641 C98.8951062 484.55603363 97.71428467 484.56275085 96.49768066 484.56967163 C93.24872046 484.58545912 89.99991338 484.59203006 86.75091934 484.5933032 C84.71417399 484.5947255 82.67745529 484.59899719 80.64071655 484.60429764 C73.51363434 484.62283554 66.386627 484.63096601 59.25952148 484.62939453 C52.65569886 484.6282011 46.05220733 484.64913496 39.44846821 484.68088186 C33.75645853 484.7072523 28.06455527 484.71775282 22.37248516 484.71648371 C18.98368926 484.7159789 15.59518559 484.72138627 12.20645142 484.74283981 C-2.60075511 484.82017904 -16.33293175 484.42903828 -30.59985352 480.25878906 C-31.70868896 479.94775238 -32.81752441 479.6367157 -33.95996094 479.31625366 C-63.32074383 470.74167359 -89.27248794 448.8613445 -104.28735352 422.50878906 C-105.77895001 419.7847638 -107.20704331 417.03452203 -108.59985352 414.25878906 C-108.92614746 413.60990723 -109.25244141 412.96102539 -109.58862305 412.29248047 C-119.69121926 391.59536254 -121.35302981 369.0553633 -121.21508789 346.37744141 C-121.21860071 343.8987846 -121.22427226 341.42013009 -121.23190308 338.94148254 C-121.24453884 332.97668208 -121.23439026 327.01219608 -121.21278983 321.04744647 C-121.18846424 314.06717323 -121.19051324 307.08697417 -121.19309574 300.10666795 C-121.19676511 287.63386666 -121.17614078 275.16122604 -121.1418457 262.68847656 C-121.10875369 250.64839623 -121.09459238 238.60848428 -121.10083008 226.56835938 C-121.10871763 211.26892156 -121.09918893 195.96958757 -121.07598755 180.67016571 C-121.06915736 175.83057419 -121.06841158 170.99100448 -121.06987 166.15140915 C-121.07147881 159.61263732 -121.05629844 153.07402147 -121.03064346 146.5352993 C-121.02356407 144.15513884 -121.02135754 141.7749573 -121.0247612 139.39478874 C-121.03820191 127.76717051 -120.73138591 116.3278043 -119.2611084 104.78237915 C-119.14502086 103.86757636 -119.02893332 102.95277358 -118.90932798 102.0102495 C-114.51201325 71.00261543 -94.97941408 42.76910121 -70.44360352 24.02050781 C-64.79532286 19.86290447 -58.80593792 16.51431491 -52.59985352 13.25878906 C-51.79805664 12.80117187 -50.99625977 12.34355469 -50.17016602 11.87207031 C-44.73880193 8.89327721 -39.04057132 6.9595098 -33.16235352 5.07128906 C-32.38738525 4.8210498 -31.61241699 4.57081055 -30.81396484 4.31298828 C-20.553137 1.13980179 -10.72336465 -0.03887274 0 0 Z M-58.34985352 65.50878906 C-64.29812115 71.48508564 -68.64482634 77.78190436 -72.59985352 85.25878906 C-73.07938477 86.13792969 -73.55891602 87.01707031 -74.05297852 87.92285156 C-82.14711142 104.06235754 -82.18567386 121.02080443 -82.13330078 138.66259766 C-82.14037164 141.18597413 -82.14912152 143.70934638 -82.15940857 146.23271179 C-82.17946652 152.33625512 -82.18096317 158.43954751 -82.17278302 164.54311083 C-82.16644542 169.51109544 -82.1676542 174.47902594 -82.1740551 179.44701004 C-82.17495675 180.15803954 -82.17585841 180.86906904 -82.17678739 181.60164488 C-82.17863887 183.04677292 -82.18050143 184.49190095 -82.18237495 185.93702896 C-82.1988979 199.44380364 -82.19028152 212.95047341 -82.17338937 226.45724173 C-82.1586995 238.77184977 -82.17332049 251.08621365 -82.20215953 263.40079026 C-82.23166227 276.094876 -82.24249415 288.78884949 -82.23297733 301.48296797 C-82.23195495 302.92295748 -82.23096033 304.36294701 -82.22999382 305.80293655 C-82.22951743 306.51115279 -82.22904104 307.21936903 -82.22855021 307.94904637 C-82.22640028 312.90066936 -82.23611378 317.85218433 -82.25076485 322.80378342 C-82.27027605 329.49027961 -82.26302624 336.17625422 -82.23856544 342.86275673 C-82.23359316 345.30265012 -82.23695288 347.74257853 -82.2497139 350.18244362 C-82.36891549 374.95154502 -78.17243361 396.07722185 -61.59985352 415.25878906 C-61.00817383 415.99355469 -60.41649414 416.72832031 -59.80688477 417.48535156 C-48.42815872 431.13982282 -29.64107344 442.92092249 -11.66235352 444.88378906 C-10.56600586 444.965 -10.56600586 444.965 -9.44750977 445.04785156 C-7.59985352 445.25878906 -7.59985352 445.25878906 -5.59985352 446.25878906 C20.80014648 446.25878906 47.20014648 446.25878906 74.40014648 446.25878906 C74.40014648 311.94878906 74.40014648 177.63878906 74.40014648 39.25878906 C-0.6574087 34.28713455 -0.6574087 34.28713455 -58.34985352 65.50878906 Z " fill="#FEFDFD" transform="translate(840.599853515625,155.7412109375)"/>
<path d="M0 0 C8.25 0 16.5 0 25 0 C28.07559436 10.10552433 30.81131298 20.18076922 33.19189453 30.47045898 C34.56070252 36.32531706 36.1823561 42.03180459 38.03515625 47.75390625 C39.40453097 52.36099287 40.4444043 57.03603706 41.42993164 61.73925781 C42.68022499 67.42078832 44.72931593 72.6519052 47 78 C51.01177957 65.22899393 54.98352291 52.477562 58.27392578 39.49951172 C59.82540821 33.45751718 61.76420678 27.62427657 63.80078125 21.7265625 C65.35283115 16.90358008 66.57678651 12.02895962 67.74438477 7.10083008 C68.91434333 2.17131334 68.91434333 2.17131334 70 0 C76.93 0 83.86 0 91 0 C92.6325104 4.08127601 93.97544099 8.102401 95.1875 12.3125 C95.39890625 13.03888672 95.6103125 13.76527344 95.828125 14.51367188 C96.29707478 16.12551926 96.76495556 17.73767792 97.23193359 19.35009766 C98.34890422 23.20375285 99.47344092 27.05519134 100.59765625 30.90673828 C101.2014212 32.97646282 101.80427935 35.0464521 102.40625 37.11669922 C103.72649547 41.65468268 105.05139393 46.19057134 106.41796875 50.71484375 C109.33500099 60.39772453 111.7892462 70.13188666 114 80 C114.66 80 115.32 80 116 80 C116.11682129 79.39124023 116.23364258 78.78248047 116.35400391 78.15527344 C117.52956342 72.14019268 118.87320457 66.19147816 120.375 60.25 C120.59414063 59.37730469 120.81328125 58.50460937 121.0390625 57.60546875 C122.56184426 51.59402215 124.22993892 45.63621718 125.96875 39.68359375 C127.23409368 35.16382446 128.37269361 30.61834027 129.5 26.0625 C131.04973541 19.80344959 132.60849923 13.5482197 134.25 7.3125 C134.56453125 6.11238281 134.8790625 4.91226563 135.203125 3.67578125 C136 1 136 1 137 0 C138.78071246 -0.08726223 140.5648314 -0.10699041 142.34765625 -0.09765625 C143.42724609 -0.09443359 144.50683594 -0.09121094 145.61914062 -0.08789062 C147.32360352 -0.07532227 147.32360352 -0.07532227 149.0625 -0.0625 C150.77276367 -0.05573242 150.77276367 -0.05573242 152.51757812 -0.04882812 C155.34510351 -0.03699747 158.1725264 -0.0205141 161 0 C160.42499124 5.4413987 159.46240036 10.55156289 157.9375 15.8125 C157.72488525 16.56313721 157.51227051 17.31377441 157.29321289 18.0871582 C154.8943057 26.49631176 152.373906 34.87065507 149.875 43.25048828 C147.81999734 50.16179693 145.87394272 57.07968719 144.0625 64.05859375 C142.35884067 70.49752572 140.43232969 76.87643169 138.54858398 83.2644043 C136.61810934 89.82300529 134.78250181 96.39954236 133 103 C132.01 106.63 131.02 110.26 130 114 C120.76 114 111.52 114 102 114 C97.49814968 98.65695913 93.08671199 83.29492406 88.80664062 67.88867188 C88.04111214 65.14722725 87.26495836 62.40906574 86.484375 59.671875 C86.25314941 58.8557373 86.02192383 58.03959961 85.78369141 57.19873047 C85.36236833 55.71238759 84.9378682 54.22693929 84.50927734 52.74267578 C83.31107972 48.49244578 82.53357933 44.37080943 82 40 C81.34 40 80.68 40 80 40 C79.72671875 41.26328125 79.4534375 42.5265625 79.171875 43.828125 C77.98394051 49.16757793 76.63558577 54.45883967 75.25 59.75 C74.98832031 60.7507959 74.72664062 61.7515918 74.45703125 62.78271484 C72.02987876 71.99921674 69.43026544 81.16159429 66.77636719 90.31494141 C65.38010803 95.14389053 64.00415415 99.97864422 62.625 104.8125 C61.325625 109.3603125 61.325625 109.3603125 60 114 C50.76 114 41.52 114 32 114 C27.89623494 99.9788027 23.84146822 85.94626654 19.85058594 71.89257812 C18.06937415 65.64876047 16.23463416 59.43208445 14.25 53.25 C12.46276936 47.64486471 10.96315787 42.00914538 9.59326172 36.29150391 C8.02201853 29.84138548 6.09543477 23.50901138 4.10571289 17.17675781 C2.32869452 11.43155461 1.19408596 5.97042978 0 0 Z " fill="#FEFBFB" transform="translate(719,806)"/>
<path d="M0 0 C9.84114119 9.18828907 15.6023825 21.04520356 16.515625 34.41015625 C16.75420786 50.13674317 12.83286127 61.6882681 2.0625 73.25 C-7.5432015 82.38195092 -19.48149853 87.03334616 -32.625 86.8125 C-33.50599365 86.80162354 -34.3869873 86.79074707 -35.29467773 86.77954102 C-48.47191753 86.45600089 -58.34974266 81.70543262 -68 72.625 C-77.72285401 62.24600247 -82.36190619 49.50127526 -82.15795898 35.32104492 C-81.53729825 21.5986498 -74.73675922 9.54577079 -64.85546875 0.21875 C-45.50194609 -15.68252267 -19.7893955 -15.17339331 0 0 Z " fill="#D7222F" transform="translate(1130.6875,384.5625)"/>
<path d="M0 0 C7.59 0 15.18 0 23 0 C23 14.85 23 29.7 23 45 C40.82 45 58.64 45 77 45 C77 30.15 77 15.3 77 0 C84.59 0 92.18 0 100 0 C100 37.62 100 75.24 100 114 C92.08 114 84.16 114 76 114 C76 99.15 76 84.3 76 69 C58.51 69 41.02 69 23 69 C23 83.85 23 98.7 23 114 C15.41 114 7.82 114 0 114 C0 76.38 0 38.76 0 0 Z " fill="#FEFCFC" transform="translate(1215,806)"/>
<path d="M0 0 C13.21233209 7.44294708 21.00837282 16.58509283 26.65625 30.5703125 C28.97094595 43.19592678 27.48570126 56.39929854 20.40625 67.3203125 C19.40267932 68.66668703 18.38339998 70.00159858 17.34375 71.3203125 C16.621875 72.3515625 15.9 73.3828125 15.15625 74.4453125 C11.39247369 78.78813132 6.29343923 81.53146986 1.34375 84.3203125 C0.59480469 84.75988281 -0.15414062 85.19945312 -0.92578125 85.65234375 C-9.68313221 89.99267706 -21.35767505 89.73411621 -30.75390625 87.625 C-33.20909228 86.69895519 -35.38256884 85.62707231 -37.65625 84.3203125 C-38.50445313 83.87300781 -39.35265625 83.42570312 -40.2265625 82.96484375 C-51.53150834 76.67119479 -59.46255573 66.91000045 -63.24145508 54.37988281 C-65.70472586 42.14906923 -64.3674847 29.09438149 -57.92578125 18.46484375 C-45.4801527 0.05723745 -21.20255667 -9.59482786 0 0 Z " fill="#FEFDFD" transform="translate(859.65625,258.6796875)"/>
<path d="M0 0 C-1.04644075 5.32175065 -2.25914023 10.14400206 -4.625 15.0625 C-5.07101562 16.00222656 -5.51703125 16.94195313 -5.9765625 17.91015625 C-6.31429687 18.59980469 -6.65203125 19.28945313 -7 20 C-9.52121432 19.37650642 -12.04196931 18.75124639 -14.5625 18.125 C-15.26697266 17.95097656 -15.97144531 17.77695312 -16.69726562 17.59765625 C-17.39658203 17.42363281 -18.09589844 17.24960937 -18.81640625 17.0703125 C-19.52869385 16.89491943 -20.24098145 16.71952637 -20.97485352 16.53881836 C-22.73630342 16.07016014 -24.46670648 15.48773119 -26.1875 14.88671875 C-31.9251504 13.55224473 -37.56703502 13.67164245 -43.4375 13.6875 C-44.62666016 13.67138672 -45.81582031 13.65527344 -47.04101562 13.63867188 C-54.87228136 13.63432359 -61.43323651 13.86820766 -67.5625 19.25 C-69.23407294 22.0024216 -69.23407294 22.0024216 -69.25 25.5 C-67.70570372 29.82402958 -66.09390277 30.88647139 -62.15625 33.0078125 C-57.06590102 35.35011076 -52.0737774 36.14474014 -46.5625 36.875 C-31.18664512 38.97614966 -12.60219911 42.6033478 0 52 C0.886875 52.5775 1.77375 53.155 2.6875 53.75 C8.13042449 59.04581842 10.2454675 63.99681536 10.59570312 71.55712891 C10.69652007 79.74850556 9.88337168 86.16327964 5 93 C4.278125 94.0725 3.55625 95.145 2.8125 96.25 C-11.48421498 110.22901021 -32.41731534 111.48903348 -51.2890625 111.27734375 C-65.69057541 110.87044129 -82.84738957 107.10174029 -95 99 C-93.6077541 94.37324343 -91.70479016 90.35313769 -89.375 86.125 C-88.74335937 84.97257813 -88.11171875 83.82015625 -87.4609375 82.6328125 C-86.97882812 81.76398438 -86.49671875 80.89515625 -86 80 C-82.54439749 80.59937884 -79.53506431 81.50074943 -76.3125 82.875 C-60.43781183 89.3520612 -40.22162165 92.68864866 -23.79296875 86.1171875 C-18.39221541 83.65348333 -18.39221541 83.65348333 -15 79 C-14.5487815 76.23557271 -14.323016 73.72925833 -15 71 C-22.63805772 61.88051382 -38.83824717 61.58041713 -50.06152344 59.72094727 C-65.43252769 57.14876853 -80.41058488 53.16178378 -90.80859375 40.80859375 C-95.18413147 34.16638403 -94.65764323 26.63190914 -94 19 C-93.12283796 15.90859648 -91.87964333 13.58917757 -90 11 C-89.319375 9.989375 -88.63875 8.97875 -87.9375 7.9375 C-66.02830889 -16.72714152 -27.00917324 -9.82745774 0 0 Z " fill="#FEFAFA" transform="translate(695,813)"/>
<path d="M0 0 C7.17973999 4.51312532 14.23052936 10.23862605 18.98974609 17.33276367 C18.63814594 20.67234391 17.47686011 22.16919507 14.97021484 24.31323242 C14.35984375 24.83723633 13.74947266 25.36124023 13.12060547 25.90112305 C12.47929688 26.43543945 11.83798828 26.96975586 11.17724609 27.52026367 C10.54753906 28.06618164 9.91783203 28.61209961 9.26904297 29.17456055 C6.18903667 31.78270858 4.02867937 33.56714929 -0.01025391 34.33276367 C-4.01025391 29.58276367 -4.01025391 29.58276367 -4.01025391 27.33276367 C-4.54521484 27.06592773 -5.08017578 26.7990918 -5.63134766 26.52416992 C-7.3964003 25.64019446 -9.15905362 24.75142476 -10.92041016 23.86010742 C-11.96068359 23.33545898 -13.00095703 22.81081055 -14.07275391 22.27026367 C-15.11560547 21.74303711 -16.15845703 21.21581055 -17.23291016 20.67260742 C-25.11874443 16.86833013 -34.58104668 17.16745675 -42.82275391 19.89526367 C-53.59780861 24.44297058 -59.1150456 31.33947162 -64.13525391 41.64135742 C-66.9937017 50.43363657 -66.13872481 60.74906215 -62.01025391 68.95776367 C-56.58317628 78.47971878 -49.31297469 83.89852341 -39.01025391 87.33276367 C-26.08261484 88.17437091 -16.17284398 87.23253151 -5.70556641 78.92651367 C-3.26086402 76.62826811 -1.67160036 74.24011996 -0.01025391 71.33276367 C4.68447893 72.78196956 7.71549934 75.55333016 11.17724609 78.89526367 C14.7811929 82.52253252 14.7811929 82.52253252 18.98974609 85.33276367 C18.59938786 90.28940547 16.09448973 92.88839874 12.67724609 96.20776367 C11.8719043 96.99666992 11.8719043 96.99666992 11.05029297 97.80151367 C5.89501157 102.68609768 0.41180346 106.27909666 -6.01025391 109.33276367 C-6.84943359 109.76459961 -7.68861328 110.19643555 -8.55322266 110.64135742 C-21.10280022 115.99856261 -40.34657253 115.65252018 -53.09619141 110.78979492 C-68.79103747 102.94237189 -81.66397816 92.06336046 -87.82275391 75.20776367 C-88.56850727 72.92144085 -89.29989526 70.63032993 -90.01025391 68.33276367 C-90.38150391 67.28862305 -90.38150391 67.28862305 -90.76025391 66.22338867 C-95.12774564 52.5143174 -91.67304861 36.70463393 -85.43603516 24.16870117 C-83.76886851 21.40952094 -81.98667503 18.87845822 -80.01025391 16.33276367 C-79.36443359 15.48327148 -78.71861328 14.6337793 -78.05322266 13.75854492 C-70.34462682 4.41955961 -59.82576507 -2.74006629 -48.01025391 -5.66723633 C-46.94806641 -6.01270508 -45.88587891 -6.35817383 -44.79150391 -6.71411133 C-29.99076806 -10.44487532 -12.98932451 -7.69090518 0 0 Z " fill="#FEFBFB" transform="translate(1169.01025390625,810.667236328125)"/>
<path d="M0 0 C32.01 0 64.02 0 97 0 C97 7.92 97 15.84 97 24 C85.12 24 73.24 24 61 24 C61 53.7 61 83.4 61 114 C52.75 114 44.5 114 36 114 C36 84.3 36 54.6 36 24 C24.12 24 12.24 24 0 24 C0 16.08 0 8.16 0 0 Z " fill="#FEFCFC" transform="translate(963,806)"/>
<path d="M0 0 C6.93159099 5.28659385 11.34042981 12.42555403 13 21 C13.9814106 32.47953007 11.75240242 40.2345967 4.62890625 49.21484375 C-0.79547115 55.15954512 -7.45014599 58.48061027 -15.421875 59.390625 C-26.40154028 59.88358956 -34.74370731 57.16846607 -42.9375 49.75 C-50.30545387 41.38881706 -52.08974721 33.34536951 -51.54296875 22.42578125 C-50.77675287 14.2288494 -47.13008242 7.67690884 -41.25 2 C-28.99892396 -7.43632787 -13.26278391 -7.92970665 0 0 Z " fill="#FDFAFA" transform="translate(1307,718)"/>
<path d="M0 0 C37.87586207 0 37.87586207 0 48.72265625 10.69921875 C55.28262404 17.8716651 56.58859174 23.93205819 56.34375 33.5625 C55.48708631 42.12913686 51.09181586 48.13479436 45 54 C35.50132729 61.47767851 26.54761397 61.39155761 15 61.1875 C10.05 61.125625 5.1 61.06375 0 61 C0 40.87 0 20.74 0 0 Z " fill="#FDFAFA" transform="translate(1160,714)"/>
<path d="M0 0 C8.58 0 17.16 0 26 0 C26 37.95 26 75.9 26 115 C17.42 115 8.84 115 0 115 C0 77.05 0 39.1 0 0 Z " fill="#FDF8F9" transform="translate(909,806)"/>
<path d="M0 0 C13 0 13 0 16 2.46484375 C17.03833008 4.11499023 17.03833008 4.11499023 18 5.9375 C18.79093421 7.22161872 19.5867558 8.50273637 20.38671875 9.78125 C20.79841309 10.46445312 21.21010742 11.14765625 21.63427734 11.8515625 C24.1039459 15.7366328 26.97836136 19.31454741 29.8125 22.9375 C30.88326792 24.32025541 31.95234391 25.70432304 33.01953125 27.08984375 C33.70172729 27.96950806 33.70172729 27.96950806 34.39770508 28.86694336 C36.65387193 31.87046763 38.81656676 34.94319347 41 38 C41.33 25.46 41.66 12.92 42 0 C46.29 0 50.58 0 55 0 C55 20.13 55 40.26 55 61 C42 61 42 61 38.16015625 57.51171875 C37.08364545 55.93273591 36.05267772 54.32200616 35.0625 52.6875 C33.90628668 50.95483506 32.74869027 49.22309241 31.58984375 47.4921875 C31.00831543 46.59209961 30.42678711 45.69201172 29.82763672 44.76464844 C26.77499563 40.14694771 23.43710328 35.74554482 20.125 31.3125 C18.10375 28.569375 16.0825 25.82625 14 23 C13.67 35.87 13.34 48.74 13 62 C8.71 62 4.42 62 0 62 C0 41.54 0 21.08 0 0 Z " fill="#FCF2F2" transform="translate(764,714)"/>
<path d="M0 0 C4.29 0 8.58 0 13 0 C13 20.13 13 40.26 13 61 C0 61 0 61 -3.83984375 57.51171875 C-4.91635455 55.93273591 -5.94732228 54.32200616 -6.9375 52.6875 C-8.09371332 50.95483506 -9.25130973 49.22309241 -10.41015625 47.4921875 C-10.99168457 46.59209961 -11.57321289 45.69201172 -12.17236328 44.76464844 C-15.22500437 40.14694771 -18.56289672 35.74554482 -21.875 31.3125 C-23.89625 28.569375 -25.9175 25.82625 -28 23 C-28.33 35.54 -28.66 48.08 -29 61 C-32.96 61 -36.92 61 -41 61 C-41 41.2 -41 21.4 -41 1 C-28 1 -28 1 -23.984375 4.734375 C-22.86212822 6.37695885 -21.78507024 8.05113299 -20.75 9.75 C-19.58244387 11.49636968 -18.414475 13.24246349 -17.24609375 14.98828125 C-16.69550293 15.84502441 -16.14491211 16.70176758 -15.57763672 17.58447266 C-13.4626073 20.82280461 -11.16531173 23.86778615 -8.8125 26.9375 C-8.13832031 27.83339844 -7.46414063 28.72929688 -6.76953125 29.65234375 C-5.61856879 31.1793381 -4.45004936 32.69330856 -3.26171875 34.19140625 C-2 36 -2 36 -2 38 C-1.34 38 -0.68 38 0 38 C0 25.46 0 12.92 0 0 Z " fill="#FDF7F7" transform="translate(1096,714)"/>
<path d="M0 0 C13 0 13 0 15.96484375 2.17578125 C16.61582031 3.21089844 17.26679687 4.24601563 17.9375 5.3125 C18.72924625 6.49691187 19.52230042 7.6804501 20.31640625 8.86328125 C20.73422363 9.5176416 21.15204102 10.17200195 21.58251953 10.84619141 C24.33292867 15.0253353 27.38673093 18.98949952 30.375 23 C32.05829675 25.29685397 33.73963333 27.59511926 35.41943359 29.89453125 C37.22749681 32.30304795 39.11863617 34.64829521 41 37 C41.33 24.79 41.66 12.58 42 0 C45.96 0 49.92 0 54 0 C54 19.8 54 39.6 54 60 C42 60 42 60 38.0390625 56.29296875 C36.86097053 54.61863546 35.72452572 52.91444408 34.625 51.1875 C33.36625727 49.36302464 32.10713233 47.53881293 30.84765625 45.71484375 C30.21875488 44.77366699 29.58985352 43.83249023 28.94189453 42.86279297 C26.43638879 39.16910924 23.79110812 35.59096339 21.12280273 32.01391602 C18.39646291 28.35650481 15.70127522 24.67596216 13 21 C12.67 33.87 12.34 46.74 12 60 C8.04 60 4.08 60 0 60 C0 40.2 0 20.4 0 0 Z " fill="#FEFBFB" transform="translate(605,715)"/>
<path d="M0 0 C15.84 0 31.68 0 48 0 C48 3.63 48 7.26 48 11 C36.45 11 24.9 11 13 11 C13 15.29 13 19.58 13 24 C23.56 24 34.12 24 45 24 C45 27.63 45 31.26 45 35 C34.44 35 23.88 35 13 35 C13 39.62 13 44.24 13 49 C24.22 49 35.44 49 47 49 C47 52.63 47 56.26 47 60 C31.49 60 15.98 60 0 60 C0 40.2 0 20.4 0 0 Z " fill="#FDF8F8" transform="translate(957,715)"/>
<path d="M0 0 C17.16 0 34.32 0 52 0 C52 4.29 52 8.58 52 13 C45.73 13 39.46 13 33 13 C33 28.84 33 44.68 33 61 C28.71 61 24.42 61 20 61 C20 45.16 20 29.32 20 13 C13.4 13 6.8 13 0 13 C0 8.71 0 4.42 0 0 Z " fill="#FDF7F8" transform="translate(861,714)"/>
<path d="M0 0 C4.49057919 2.60075629 7.73919824 5.69508533 9.8125 10.5 C10.7499689 16.40605408 10.72281928 21.53931232 8.1875 27 C0.4244403 35.17164179 0.4244403 35.17164179 -5.421875 35.703125 C-11.5519286 35.8173496 -16.89767825 35.54483502 -21.65625 31.140625 C-25.95980778 26.28661215 -27.65770093 22.04892622 -27.42578125 15.54296875 C-26.63171169 8.73479856 -23.11338817 5.09648887 -18.125 0.8828125 C-12.86474903 -2.87147952 -5.74466536 -2.50776738 0 0 Z " fill="#D72430" transform="translate(1296.1875,727.5)"/>
<path d="M0 0 C20.75115207 0 20.75115207 0 26.80078125 5.6953125 C29.94136437 9.26185977 31.40458473 12.22433581 31.625 17 C31.22190363 22.70468991 29.75450219 27.58039418 25.35742188 31.44287109 C19.84280401 35.14542089 15.53394168 35.63610423 9 35.3125 C6.03 35.209375 3.06 35.10625 0 35 C0 23.45 0 11.9 0 0 Z " fill="#D82632" transform="translate(1172,727)"/>
<path d="M0 0 C4.62 0 9.24 0 14 0 C14 20.13 14 40.26 14 61 C9.38 61 4.76 61 0 61 C0 40.87 0 20.74 0 0 Z " fill="#FCF2F3" transform="translate(705,714)"/>
<path d="M0 0 C1.65 0 3.3 0 5 0 C5.99 2.97 6.98 5.94 8 9 C9.32 6.03 10.64 3.06 12 0 C13.32 0 14.64 0 16 0 C16 4.95 16 9.9 16 15 C15.01 15 14.02 15 13 15 C12.67 13.35 12.34 11.7 12 10 C11.34 11.65 10.68 13.3 10 15 C8.68 15 7.36 15 6 15 C5.34 13.02 4.68 11.04 4 9 C3.67 10.98 3.34 12.96 3 15 C2.01 15 1.02 15 0 15 C0 10.05 0 5.1 0 0 Z " fill="#F7D7DA" transform="translate(1339,905)"/>
<path d="M0 0 C3.96 0 7.92 0 12 0 C12 0.66 12 1.32 12 2 C10.35 2 8.7 2 7 2 C7 5.96 7 9.92 7 14 C6.34 14 5.68 14 5 14 C5 10.04 5 6.08 5 2 C3.35 2 1.7 2 0 2 C0 1.34 0 0.68 0 0 Z " fill="#FDF8F8" transform="translate(1325,906)"/>
<path d="M0 0 C0.33 0.66 0.66 1.32 1 2 C-1.31 4.64 -3.62 7.28 -6 10 C-6.33 9.01 -6.66 8.02 -7 7 C-4.69 4.69 -2.38 2.38 0 0 Z " fill="#D92D36" transform="translate(1067,384)"/>
<path d="M0 0 C2.12508244 3.18762365 2.5020163 5.26512223 3 9 C2.01 9 1.02 9 0 9 C0 6.03 0 3.06 0 0 Z " fill="#DB343D" transform="translate(1342,911)"/>
</svg>
